<svg width="78" height="62" viewBox="0 0 78 62" fill="none" xmlns="http://www.w3.org/2000/svg">
<path d="M75.9716 24.8554C71.0544 19.9891 65.4456 16.1545 59.1454 13.3517C52.8451 10.5489 46.0993 9.14754 38.9078 9.14754C37.3097 9.14754 35.7269 9.22454 34.1596 9.37854C32.5922 9.53254 31.2861 9.73274 30.2411 9.97913L27.6596 7.48435C28.9504 7.11475 30.5177 6.82215 32.3617 6.60656C34.2057 6.39096 36.3877 6.28316 38.9078 6.28316C46.591 6.28316 53.7518 7.76155 60.3901 10.7183C67.0284 13.6751 72.8983 17.7407 78 22.915L75.9716 24.8554ZM61.0355 39.7317C60.2364 38.9925 59.5295 38.3765 58.9149 37.8838C58.3002 37.391 57.5012 36.8982 56.5177 36.4054L51.4468 31.231C52.8605 31.6006 54.5355 32.4014 56.4716 33.6334C58.4078 34.8654 60.3593 36.467 62.3262 38.4381L61.0355 39.7317ZM68.6879 61.3532L38.8156 31.3234C34.6974 31.385 30.7482 32.2474 26.9681 33.9106C23.1879 35.5738 20.0071 37.7914 17.4255 40.5633L15.4894 38.6229C18.0709 35.9742 21.1288 33.7104 24.6631 31.8316C28.1974 29.9528 31.9929 28.8286 36.0496 28.459L20.2837 12.7511C17.3333 13.7983 14.1678 15.4461 10.7872 17.6945C7.40662 19.9429 4.42553 22.3299 1.84397 24.8554L0 22.915C2.70449 20.2047 5.65485 17.7253 8.85106 15.4769C12.0473 13.2285 15.0591 11.5191 17.8865 10.3487L9.03546 1.47839L10.5106 0L70.2553 59.8748L68.6879 61.3532ZM38.9078 62L30.8865 53.9612C31.9314 52.9141 33.13 52.0979 34.4823 51.5127C35.8345 50.9275 37.3097 50.6349 38.9078 50.6349C40.5059 50.6349 41.9811 50.9275 43.3333 51.5127C44.6856 52.0979 45.8842 52.9141 46.9291 53.9612L38.9078 62Z" fill="#222222"/>
</svg>
