<svg width="36" height="25" viewBox="0 0 36 25" fill="none" xmlns="http://www.w3.org/2000/svg">
<g clip-path="url(#clip0_1956_8795)">
<rect x="1.16797" y="1.11865" width="34.429" height="22.9008" rx="3.81679" fill="white"/>
<mask id="mask0_1956_8795" style="mask-type:luminance" maskUnits="userSpaceOnUse" x="1" y="1" width="35" height="24">
<path d="M1.16992 1.11865H35.5956V24.0194H1.16992V1.11865Z" fill="white"/>
</mask>
<g mask="url(#mask0_1956_8795)">
<path fill-rule="evenodd" clip-rule="evenodd" d="M-0.984375 1.11865H37.7483V24.0194H-0.984375V1.11865Z" fill="#165D31"/>
<path fill-rule="evenodd" clip-rule="evenodd" d="M9.86002 7.5945C9.82356 8.1415 9.76886 9.09874 10.2384 9.19902C10.799 9.25372 10.4891 8.2509 10.6942 8.06856C10.7307 7.9774 10.799 7.9774 10.8036 8.09136V8.94375C10.8036 9.21725 10.9859 9.2993 11.1227 9.354C11.2685 9.34488 11.3688 9.354 11.4235 9.49075L11.4964 10.9631C11.4964 10.9631 11.8338 11.0634 11.852 10.138C11.8657 9.59103 11.7426 9.13976 11.8155 9.03492C11.8155 8.93008 11.9523 8.92552 12.0434 8.97566C12.1893 9.07594 12.2531 9.20358 12.481 9.15799C12.8275 9.05771 13.0371 8.88906 13.0417 8.62468C13.0349 8.36486 12.9808 8.10846 12.8822 7.868C12.9004 7.82242 12.8183 7.69934 12.8366 7.65376C12.8958 7.75404 12.9916 7.74493 13.0098 7.65376C12.9505 7.46231 12.8594 7.27542 12.7135 7.19793C12.5904 7.08853 12.4081 7.10677 12.3488 7.33468C12.3124 7.5945 12.44 7.89991 12.6269 8.15517C12.6679 8.2509 12.7226 8.41499 12.6998 8.56086C12.5995 8.62012 12.4993 8.59277 12.4127 8.50616C12.4127 8.50616 12.1392 8.30104 12.1392 8.2509C12.2121 7.78595 12.1528 7.73125 12.1118 7.59906C12.0845 7.42129 11.9979 7.36203 11.9295 7.24352C11.8611 7.17058 11.7699 7.17058 11.7244 7.24352C11.6013 7.4532 11.6605 7.90447 11.7472 8.10959C11.811 8.29648 11.9067 8.41499 11.8611 8.41499C11.8246 8.51983 11.7472 8.49249 11.6879 8.36941C11.6212 8.1104 11.589 7.84371 11.5922 7.57627C11.5694 7.36659 11.542 6.91988 11.4007 6.80136C11.3187 6.69196 11.1956 6.74666 11.15 6.84694C11.138 7.05058 11.1426 7.25486 11.1637 7.45776C11.2549 7.79507 11.2868 8.09591 11.3323 8.43779C11.346 8.89817 11.068 8.63835 11.0816 8.40588C11.1414 8.11362 11.1368 7.81184 11.068 7.52157C11.0224 7.40306 10.9722 7.37571 10.8583 7.39394C10.7717 7.39394 10.5483 7.63553 10.4845 8.04577C10.4845 8.04577 10.4298 8.25545 10.407 8.44234C10.3751 8.65202 10.2384 8.80701 10.1381 8.41499C10.056 8.12782 10.0013 7.43041 9.86458 7.5945H9.86002Z" fill="white"/>
<path fill-rule="evenodd" clip-rule="evenodd" d="M11.3874 9.83208L9.92871 10.5341C9.94239 10.2013 10.617 9.60417 11.082 9.59961C11.3782 9.60417 11.3053 9.71357 11.3828 9.83208H11.3874Z" fill="white"/>
<path fill-rule="evenodd" clip-rule="evenodd" d="M11.1283 10.288C10.3625 12.2708 12.9288 12.5489 13.216 10.37C13.2433 10.2788 13.3527 10.1922 13.3709 10.3381C13.3117 12.3118 11.3835 12.444 11.0553 11.8241C10.9781 11.6108 10.9395 11.3854 10.9414 11.1586C10.8958 10.7711 10.6907 10.9216 10.6588 11.3045C10.6269 11.5187 10.636 11.578 10.636 11.7831C10.7363 13.342 13.2205 12.6719 13.6262 11.3865C13.8404 10.6754 13.5897 10.1512 13.7037 10.1512C13.9498 10.4156 14.2963 10.1877 14.3738 10.0965C14.4057 10.0509 14.4877 10.019 14.5424 10.0783C14.7339 10.215 15.0712 10.1512 15.1441 9.90962C15.1851 9.66803 15.217 9.42188 15.2262 9.17118C15.0666 9.21676 14.9527 9.24867 14.939 9.31704L14.9071 9.52672C14.8934 9.5951 14.7612 9.5951 14.7521 9.50849C14.6928 9.23499 14.4467 9.20309 14.2963 9.62245C14.2005 9.7045 14.0182 9.72273 14 9.59966C14.0228 9.31704 13.9088 9.28058 13.6809 9.41277L13.4621 7.76267C13.5533 7.76267 13.6444 7.83104 13.731 7.72164C13.6399 7.42535 13.4348 6.82366 13.3208 6.77808C13.2707 6.71426 13.2251 6.75529 13.1521 6.77352C13.0336 6.80999 12.9242 6.91027 12.9607 7.11083C13.0974 7.96779 13.1886 8.61962 13.3299 9.48114C13.3527 9.57686 13.2707 9.70905 13.1613 9.69538C12.9789 9.57231 12.9333 9.3216 12.6143 9.33072C12.3864 9.33072 12.1311 9.58142 12.0992 9.81845C12.0582 10.0099 12.0445 10.215 12.0992 10.3791C12.2587 10.5706 12.4502 10.5523 12.6188 10.5113C12.7556 10.4521 12.8695 10.3153 12.9197 10.3472C12.9516 10.3882 12.9242 10.8441 12.2678 11.1905C11.8713 11.3728 11.5522 11.4093 11.3835 11.0857C11.2787 10.8805 11.3926 10.1102 11.1283 10.288Z" fill="white"/>
<path fill-rule="evenodd" clip-rule="evenodd" d="M14.3961 8.27393C14.5466 8.21923 15.2759 7.3805 15.2759 7.3805L15.1665 7.28934C15.1255 7.25743 15.13 7.22096 15.1665 7.18906C15.3488 7.07966 15.2896 6.85174 15.1984 6.74234C15.1365 6.71217 15.0684 6.69687 14.9996 6.69767C14.9307 6.69846 14.863 6.71532 14.8018 6.7469C14.6742 6.86998 14.6468 7.06598 14.7471 7.1845C14.8428 7.23008 14.9386 7.33036 14.8748 7.38506C14.5739 7.70414 13.758 8.25569 13.8537 8.27393C13.8719 8.30128 14.3779 8.30128 14.3916 8.27393H14.3961ZM9.9746 11.2368C9.7011 11.6744 9.67831 12.3262 9.82873 12.5222C9.91078 12.6134 10.043 12.6544 10.1387 12.6225C10.3119 12.5496 10.3894 12.1986 10.3484 12.0755C10.2891 11.9844 10.2435 11.9707 10.1843 12.0436C10.0658 12.2898 10.0156 12.1211 10.0019 11.9844C9.98888 11.7528 10.0011 11.5205 10.0384 11.2915C10.0703 11.1001 10.0384 11.1548 9.9746 11.2368ZM21.6939 10.5394C21.4296 9.96505 21.0603 9.39982 20.9464 9.18558C20.5912 8.62402 20.2141 8.07661 19.8159 7.5446C19.5333 7.20729 20.2809 7.68591 19.7248 7.01128L19.3191 6.66941C19.2279 6.6056 19.0091 6.48708 18.9727 6.67853C18.9544 6.85174 18.9635 6.94291 18.9909 7.08421C19.0137 7.17538 19.1504 7.33492 19.2188 7.42609C20.1533 8.66387 20.9741 9.98354 21.6712 11.369C21.7897 11.3097 21.7623 10.6351 21.6939 10.5394Z" fill="white"/>
<path fill-rule="evenodd" clip-rule="evenodd" d="M20.5313 12.4443C20.4766 12.5036 20.6589 12.7543 20.8959 12.7543C21.2879 12.7087 21.6344 12.4899 21.9534 11.9064C22.0831 11.7123 22.1658 11.4907 22.195 11.2592C22.2336 10.1526 22.1449 9.04526 21.9306 7.95896C21.917 7.86779 21.9306 7.75839 21.9398 7.73104C21.9671 7.69914 22.0537 7.73104 22.0993 7.65355C22.1677 7.58518 21.917 7.01539 21.7802 6.80115C21.7346 6.70087 21.7118 6.63706 21.6298 6.81027C21.5308 7.0014 21.4836 7.21515 21.4931 7.4302C21.6799 8.72931 21.7392 9.86432 21.8577 11.1634C21.8714 11.2911 21.8532 11.4734 21.7665 11.5463C21.4226 11.9293 21.0016 12.2353 20.5313 12.4443ZM25.8417 12.4397C25.559 12.6038 25.559 12.7907 25.787 12.7953C26.179 12.7497 26.6439 12.7178 26.963 12.2346C27.0757 12.0071 27.1408 11.7589 27.1544 11.5053C27.2118 10.4158 27.1399 9.32329 26.9402 8.25069C26.9311 8.15952 26.8901 7.94528 26.9037 7.91793C26.9311 7.85412 27.0587 7.92249 27.1043 7.84956C27.1681 7.78118 26.7715 7.27066 26.6302 7.05186C26.5847 6.95158 26.5664 6.88776 26.4798 7.06098C26.388 7.25386 26.3593 7.47077 26.3978 7.6809C26.6074 9.09397 26.7624 10.1515 26.7943 11.4005C26.7761 11.519 26.7715 11.5828 26.7168 11.7332C26.5938 11.8882 26.457 12.0888 26.3294 12.1845C26.2018 12.2757 25.9283 12.3668 25.8417 12.4397Z" fill="white"/>
<path fill-rule="evenodd" clip-rule="evenodd" d="M26.0503 11.1776C26.0503 10.8449 26.0548 10.5623 26.0457 10.3116C26.0428 10.0992 25.9962 9.88979 25.909 9.6962C25.8269 9.50932 25.8771 9.35889 25.836 9.15833C25.7996 8.95776 25.8087 8.65692 25.754 8.42444C25.7358 8.33328 25.6902 8.03699 25.7038 8.00508C25.7266 7.94127 25.8132 8.00508 25.8588 7.93215C25.9226 7.86378 25.6309 7.11166 25.4851 6.89742C25.4349 6.8017 25.3346 6.8336 25.2207 6.98858C25.1067 7.09343 25.1477 7.3259 25.1933 7.54925C25.4714 9.02158 25.6856 10.3572 25.64 11.7565C25.6218 11.8751 26.0503 11.401 26.0503 11.1776ZM23.9671 9.35433C23.7894 9.34522 23.4202 9.00335 23.3108 8.80734C23.2928 8.75944 23.2852 8.7083 23.2884 8.65726C23.2915 8.60621 23.3053 8.5564 23.329 8.51105C23.3974 8.46547 23.4976 8.41989 23.5751 8.46547C23.5751 8.46547 23.6526 8.57487 23.6389 8.58854C23.7301 8.63412 23.7757 8.61133 23.7848 8.57031C23.7894 8.50193 23.7575 8.46091 23.7575 8.38798C23.7985 8.1783 24.031 8.14639 24.1221 8.27858C24.1859 8.36063 24.2133 8.52928 24.2178 8.64324C24.2178 8.7025 24.1267 8.63413 24.0674 8.64324C24.0173 8.66148 24.0036 8.72529 23.9991 8.77999C23.9899 8.93041 23.9717 9.172 23.9671 9.34978V9.35433ZM20.6943 11.5423C20.7399 11.0956 20.6761 10.2979 20.6715 10.0335C20.6471 9.35359 20.5908 8.67518 20.5028 8.00052C20.4481 7.61763 20.6578 8.04155 20.6305 7.81819C20.5621 7.43985 20.3524 7.18003 20.1017 6.83816C20.0242 6.7242 20.0242 6.70141 19.9012 6.86551C19.7644 7.17092 19.8829 7.38516 19.9194 7.62674C20.0972 8.41077 20.202 9.13098 20.2521 9.84663C20.3046 10.59 20.3107 11.336 20.2704 12.0802C20.4071 12.0847 20.6168 11.8659 20.6943 11.5423Z" fill="white"/>
<path fill-rule="evenodd" clip-rule="evenodd" d="M26.6567 10.8263C26.3422 10.2975 25.8727 9.7323 25.745 9.51806C25.3223 8.92779 24.8784 8.35307 24.414 7.79503C24.0266 7.38478 24.5963 7.72665 24.3411 7.40757C24.1268 7.1751 24.0676 7.09761 23.8807 6.9563C23.7895 6.89704 23.7348 6.78309 23.6984 6.97909C23.6838 7.14887 23.6808 7.31943 23.6892 7.48962C23.6892 7.56711 23.7713 7.71753 23.8442 7.8087C24.7878 8.97106 25.8225 10.1562 26.6521 11.6468C26.7706 11.5875 26.7296 10.9174 26.6521 10.8263H26.6567Z" fill="white"/>
<path fill-rule="evenodd" clip-rule="evenodd" d="M12.4629 9.855C12.4401 9.89602 12.39 9.94616 12.4082 9.9963C12.4401 10.0419 12.472 10.0556 12.5267 10.0556C12.5769 10.0556 12.6498 10.0692 12.6635 10.0419C12.6908 10.01 12.7091 9.95072 12.6908 9.89146C12.6361 9.75471 12.4903 9.80941 12.4629 9.855Z" fill="#165D31"/>
<path fill-rule="evenodd" clip-rule="evenodd" d="M23.0199 17.5037C23.4393 17.5219 23.7128 17.5264 24.082 17.5675L24.5196 17.5219C25.0028 17.4763 25.021 18.2102 25.021 18.2102C25.021 18.6432 24.8524 18.666 24.6381 18.7116C24.5151 18.7298 24.4558 18.6387 24.3874 18.5475C24.2843 18.5805 24.1745 18.5868 24.0684 18.5657C23.8906 18.5566 23.7174 18.5566 23.5441 18.5429C23.3618 18.5293 23.2615 18.5657 23.0746 18.5475C23.0382 18.6068 22.9835 18.6888 22.8741 18.666C22.7829 18.6523 22.669 18.3925 22.7009 18.1874C22.7692 18.0415 22.7464 18.0917 22.7464 18.0279C21.0325 17.9823 19.3049 17.9048 17.6275 17.9276C16.3147 17.9321 15.0202 17.9868 13.721 18.0415C13.0282 18.0324 12.4994 17.923 12.1348 17.3897C12.1712 17.3897 13.9034 17.4854 14.4093 17.4535C15.3438 17.4444 16.2008 17.3669 17.1534 17.3396C19.0314 17.3715 20.8958 17.3715 22.7738 17.5037C22.5915 17.3806 22.5915 17.0934 22.865 17.0205C22.8878 17.0022 22.9014 17.1618 22.9425 17.1572C23.1658 17.1435 23.0655 17.4444 23.0199 17.5037ZM15.4714 7.14723C15.1888 7.95861 15.6355 8.85203 15.9455 8.76542C16.1734 8.85659 16.3102 8.42811 16.4013 7.96317C16.4697 7.83098 16.5153 7.8173 16.5472 7.88568C16.5381 8.5056 16.5928 8.64691 16.7523 8.8338C17.1079 9.1073 17.4041 8.87027 17.4269 8.84747L17.7004 8.56942C17.7642 8.50104 17.8463 8.50104 17.9329 8.55574C18.0195 8.63323 18.0058 8.76542 18.1882 8.85659C18.3431 8.92041 18.6668 8.87482 18.7443 8.74263C18.8446 8.56486 18.8719 8.5056 18.9175 8.44179C18.9904 8.34606 19.1135 8.38709 19.1135 8.41899C19.0998 8.47369 19.0269 8.52384 19.077 8.62412C19.1682 8.68793 19.1864 8.64691 19.2366 8.63323C19.4189 8.54207 19.5557 8.15006 19.5557 8.15006C19.5602 8.00419 19.4782 8.01331 19.4235 8.04977L19.2822 8.1455C19.191 8.15917 19.0223 8.21843 18.9357 8.08624C18.8491 7.93126 18.8491 7.7079 18.7853 7.54836C18.7853 7.53925 18.6668 7.29766 18.7762 7.28398C18.8309 7.2931 18.9448 7.32501 18.9631 7.22928C19.0178 7.13356 18.8446 6.86462 18.7215 6.72787C18.6166 6.61391 18.4708 6.60024 18.3295 6.71876C18.2292 6.80992 18.2429 6.9102 18.2246 7.00593C18.2073 7.07453 18.2066 7.14625 18.2224 7.2152C18.2383 7.28414 18.2703 7.34834 18.3158 7.4025C18.4161 7.59395 18.5939 7.84465 18.5346 8.2002C18.5346 8.2002 18.4298 8.3643 18.2474 8.3415C18.1699 8.32783 18.0469 8.29592 17.983 7.80363C17.9329 7.43896 17.9922 6.91932 17.8372 6.67773C17.7779 6.52731 17.7369 6.386 17.6001 6.63671C17.5637 6.73699 17.4041 6.88741 17.5181 7.19282C17.6259 7.46803 17.6574 7.76726 17.6093 8.05889C17.5409 8.15917 17.5272 8.19108 17.4406 8.2868C17.3221 8.42355 17.1899 8.38709 17.0896 8.33695C16.9985 8.27769 16.9255 8.24578 16.8799 8.04066C16.8891 7.72158 16.9073 7.19738 16.848 7.08798C16.7614 6.91476 16.6201 6.97858 16.5609 7.03328C16.2897 7.33451 16.1081 7.70553 16.0367 8.10447C15.9546 8.36885 15.868 8.29136 15.8087 8.18652C15.6629 8.04977 15.6492 6.96946 15.4714 7.14723Z" fill="white"/>
<path fill-rule="evenodd" clip-rule="evenodd" d="M16.3284 8.91593C16.4606 8.82476 16.4013 8.76095 16.5928 8.95239C16.8399 9.38962 16.9834 9.87773 17.0121 10.3791C17.003 10.4977 17.0851 10.5706 17.1261 10.5432C17.1443 10.2697 17.8144 9.88684 18.4298 9.83214C18.5209 9.80935 18.4753 9.63158 18.489 9.54041C18.4526 9.19854 18.6805 8.88858 18.9996 8.86579C19.4371 8.9296 19.583 9.16208 19.5921 9.51306C19.542 10.1968 18.8309 10.3108 18.4343 10.3655C18.3751 10.3883 18.3477 10.4156 18.4343 10.4475L20.1027 10.4566L20.1893 10.5022C20.1984 10.5478 20.1619 10.5113 20.0981 10.6207C20.0063 10.782 19.9489 10.9604 19.9294 11.1449C19.4326 11.309 18.9175 11.3728 18.3979 11.4412C18.2155 11.5324 18.1244 11.6555 18.1608 11.7922C18.2246 11.9426 18.6258 12.0976 18.6258 12.1022C18.7033 12.1478 18.7899 12.2617 18.603 12.4942C17.7916 12.4577 17.158 12.1113 16.9392 11.6235C16.8754 11.5734 16.8025 11.6235 16.7569 11.6874C16.4378 12.0976 16.1278 12.4623 15.5854 12.6628C15.2663 12.7449 14.9336 12.6127 14.7786 12.403C14.6737 12.2799 14.6783 12.1478 14.6418 12.1204C14.4641 12.1979 12.9598 12.8361 13.1513 12.5352C13.5159 12.1478 14.1541 11.856 14.7102 11.4731C14.7512 11.3409 14.8242 10.9033 15.043 10.762C15.0566 10.762 15.0111 11.0173 15.0156 11.1267C15.0156 11.2179 15.0065 11.2498 15.0247 11.227C15.0658 11.2042 15.7404 10.6709 15.7996 10.5068C15.8635 10.4156 15.8133 10.1786 15.8133 10.1695C15.6857 9.84126 15.5079 9.81391 15.4441 9.64981C15.3848 9.43557 15.4122 9.18942 15.5353 9.11649C15.6447 9.02077 15.7723 9.02989 15.8954 9.13928C16.0321 9.26236 16.1506 9.50395 16.1871 9.68172C16.1643 9.75009 16.0048 9.63614 15.9592 9.66805C16.0469 9.76887 16.1053 9.89186 16.1278 10.0236C16.219 10.3974 16.1916 10.5432 16.1005 10.7848C15.7996 11.4184 15.4167 11.6053 15.0794 11.8423C15.0703 11.8423 15.0658 12.0019 15.1888 12.0885C15.2344 12.1341 15.4122 12.1569 15.6173 12.0885C16.0555 11.8451 16.4099 11.4749 16.6338 11.0264C16.6725 10.6852 16.6352 10.3396 16.5244 10.0145C16.3922 9.70907 16.2372 9.27603 16.2372 9.26692C16.2327 9.07547 16.2463 9.01165 16.3284 8.91593ZM11.9616 7.15643C12.153 7.2476 12.5177 7.20657 12.4994 6.89661L12.4903 6.7553C12.4539 6.66414 12.3445 6.68693 12.3217 6.77809C12.3125 6.81 12.3353 6.86014 12.308 6.87382C12.2898 6.89205 12.2305 6.88293 12.2305 6.79633C12.2305 6.76898 12.2123 6.74163 12.1986 6.72339C12.1895 6.71428 12.1804 6.71428 12.1576 6.71428C12.1302 6.71428 12.1302 6.71884 12.1165 6.74163C12.112 6.76442 12.1029 6.78721 12.1029 6.81456C12.1029 6.84647 12.0846 6.85558 12.0664 6.86014C12.0391 6.86014 12.0436 6.86014 12.0208 6.85103C12.0117 6.83735 11.998 6.83279 11.998 6.80544L11.9844 6.73251C11.9752 6.71884 11.957 6.70972 11.9388 6.70516C11.8339 6.70516 11.8248 6.82823 11.8339 6.87382C11.8248 6.88293 11.8203 7.09717 11.9616 7.15643Z" fill="white"/>
<path fill-rule="evenodd" clip-rule="evenodd" d="M17.5908 9.53621C17.7823 9.62738 18.2426 9.57724 18.1287 9.28095L18.1196 9.13508C18.0785 9.04392 17.9737 9.06671 17.9509 9.16243C17.9418 9.18978 17.9646 9.23992 17.9327 9.2536C17.919 9.27183 17.8552 9.26271 17.8597 9.18067C17.8597 9.15332 17.8415 9.12141 17.8278 9.10318C17.8142 9.09862 17.8096 9.09406 17.7823 9.09406C17.7595 9.09406 17.7595 9.10318 17.7458 9.12597C17.7367 9.14876 17.7321 9.17155 17.7321 9.1989C17.7276 9.22625 17.7139 9.23537 17.6911 9.24448C17.6683 9.24448 17.6729 9.24448 17.6546 9.23081C17.6409 9.21713 17.6273 9.21257 17.6273 9.18978L17.6136 9.11685C17.6045 9.10318 17.5863 9.09406 17.568 9.0895C17.4632 9.0895 17.4541 9.20802 17.4586 9.2536C17.4541 9.26272 17.4495 9.48151 17.5954 9.53621H17.5908ZM20.8728 8.55162C21.0642 8.64279 21.4243 8.60176 21.4106 8.29636L21.4015 8.15049C21.3605 8.05933 21.2557 8.08212 21.2329 8.17329C21.2238 8.20519 21.2466 8.25533 21.2146 8.27357C21.201 8.28724 21.1372 8.27813 21.1417 8.19152C21.1417 8.16417 21.1235 8.13682 21.1098 8.11859C21.0961 8.10947 21.0916 8.10947 21.0642 8.10947C21.0414 8.10947 21.0414 8.11859 21.0278 8.14138L21.0141 8.20975C21.0095 8.24166 20.9958 8.25533 20.9731 8.25533C20.9503 8.25533 20.9548 8.25533 20.9366 8.24622C20.9229 8.23254 20.9092 8.22798 20.9092 8.20519C20.9092 8.1824 20.9047 8.14594 20.8956 8.1277C20.8864 8.11403 20.8682 8.10947 20.85 8.10491C20.7451 8.10491 20.736 8.22343 20.7406 8.26901C20.736 8.27813 20.7315 8.49237 20.8773 8.55162H20.8728ZM22.573 11.0268C22.2403 11.4051 22.3861 12.0296 22.4636 12.1663C22.573 12.3851 22.6596 12.5264 22.8739 12.6358C23.0699 12.7772 23.2248 12.6905 23.3069 12.5903C23.5029 12.3851 23.5075 11.8609 23.5986 11.7607C23.6624 11.5692 23.8265 11.6011 23.904 11.6877C23.9765 11.7906 24.0737 11.8737 24.1866 11.9293C24.369 12.0889 24.5878 12.1208 24.8066 11.9749C24.9524 11.8883 25.0482 11.7834 25.1348 11.5692C25.2259 11.3139 25.1804 10.1288 25.1576 9.42681L24.9661 8.44678C24.9661 8.43767 24.9433 7.98184 24.9205 7.877C24.9205 7.83141 24.9069 7.81774 24.9524 7.8223C25.0026 7.86788 25.0071 7.86788 25.0436 7.88156C25.0892 7.89067 25.1348 7.80406 25.1029 7.73113L24.647 6.88329C24.6106 6.84683 24.5604 6.81036 24.5012 6.89241C24.4662 6.92406 24.4384 6.96278 24.4195 7.006C24.4007 7.04922 24.3912 7.09596 24.3918 7.14311C24.4054 7.34368 24.4374 7.5488 24.451 7.74937L24.6334 8.77954C24.6926 9.50886 24.7063 10.1106 24.7655 10.8444C24.7564 11.1544 24.6607 11.4233 24.5695 11.4644C24.5695 11.4644 24.4328 11.5419 24.3416 11.4552C24.2733 11.4279 24.0043 11.004 24.0043 11.004C23.8676 10.8809 23.7764 10.9128 23.6807 11.004C23.4072 11.2684 23.2887 11.7515 23.1018 12.0889C23.0562 12.1663 22.9194 12.2256 22.7736 12.0843C22.3998 11.5692 22.6186 10.8399 22.573 11.0268ZM20.9594 6.75566C21.1326 6.82403 21.2511 7.17502 21.2146 7.34824C21.1782 7.55336 21.087 7.78127 21.0232 7.75392C20.9503 7.72657 21.0688 7.54424 21.0004 7.35279C20.9639 7.22516 20.7269 6.99725 20.7543 6.93343C20.7087 6.79213 20.8545 6.72831 20.9594 6.7511V6.75566Z" fill="white"/>
<path fill-rule="evenodd" clip-rule="evenodd" d="M23.1288 11.2361C23.1607 10.8167 23.1014 10.5614 23.0923 10.3153C23.0832 10.0691 22.8142 8.19112 22.7595 8.00879C22.6912 7.65325 23.0194 7.96321 22.9829 7.75353C22.8689 7.49826 22.5909 7.11993 22.5043 6.89657C22.4496 6.80541 22.4724 6.71424 22.3539 6.87378C22.2518 7.1535 22.2159 7.45306 22.249 7.74897C22.5316 9.2213 22.8188 10.4429 22.7732 11.8423C22.91 11.8423 23.0604 11.5369 23.1288 11.2361ZM26.0643 7.34784C26.2238 7.42533 26.315 7.86293 26.2968 7.986C26.2649 8.21391 26.1828 8.46006 26.1236 8.42815C26.0552 8.4008 26.1372 8.09084 26.1053 7.99512C26.0689 7.85837 25.8546 7.61222 25.8774 7.53929C25.8318 7.38431 25.9686 7.32049 26.0643 7.34784ZM14.4088 10.4429C14.5592 10.5022 14.6504 10.8213 14.6367 10.9124C14.6002 11.0811 14.5227 11.2634 14.4635 11.2361C14.4042 11.2178 14.4771 10.9899 14.4498 10.917C14.4361 10.7483 14.2264 10.6572 14.231 10.5842C14.1945 10.4475 14.3222 10.4247 14.4133 10.4429H14.4088Z" fill="white"/>
<path fill-rule="evenodd" clip-rule="evenodd" d="M18.0372 10.9258C18.2286 10.9349 18.3243 11.0899 18.1466 11.1537C17.9642 11.213 17.7956 11.2631 17.791 11.5184C17.8594 11.883 17.6999 11.7554 17.6087 11.7098C17.4993 11.6278 17.1893 11.4363 17.1437 11.0261C17.1392 10.9304 17.2167 10.8438 17.3398 10.8438C17.5221 10.8939 17.7956 10.8984 18.0372 10.9258Z" fill="#165D31"/>
<path fill-rule="evenodd" clip-rule="evenodd" d="M10.4023 6.65046C10.6211 6.71427 10.6347 7.04247 10.6211 7.13819C10.5892 7.31141 10.5117 7.4983 10.457 7.47551C10.3932 7.45272 10.457 7.21569 10.4251 7.14275C10.3932 7.04247 10.2063 6.85102 10.2245 6.79632C10.1835 6.68237 10.3157 6.62767 10.4023 6.65046ZM14.7737 8.18204C14.6004 8.27321 14.5366 8.5467 14.6415 8.7108C14.7418 8.84755 14.8967 8.79741 14.915 8.79741C15.0836 8.81564 15.1839 8.48289 15.1839 8.48289C15.1839 8.48289 15.1885 8.39172 14.9925 8.5695C14.9059 8.58317 14.9013 8.55126 14.8785 8.50568C14.8576 8.4189 14.8656 8.32768 14.9013 8.24586C14.9332 8.16381 14.8694 8.12734 14.7737 8.18204ZM16.05 6.52283C15.9588 6.58208 15.7902 6.75986 15.7856 6.96042C15.781 7.07438 15.7583 7.07438 15.8312 7.14275C15.8904 7.2248 15.9406 7.22024 16.05 7.16099C16.0772 7.14383 16.1006 7.12119 16.1187 7.09451C16.1367 7.06783 16.149 7.03769 16.1548 7.006C16.1822 6.87837 16.0181 7.06982 15.9998 6.92395C15.9634 6.78721 16.0682 6.73251 16.1685 6.60488C16.1685 6.51371 16.1685 6.45445 16.0454 6.52283H16.05ZM17.071 6.70516C17.0309 6.87114 17.0064 7.04055 16.9981 7.21113C16.9708 7.33876 17.1349 7.39346 17.2032 7.22936C17.3126 6.93307 17.3126 6.80544 17.3217 6.68237C17.2898 6.48636 17.1576 6.49092 17.071 6.70516ZM23.5438 10.0008C23.562 9.978 24.4555 9.3444 24.4555 9.3444C24.5466 9.3125 24.5238 9.6726 24.4828 9.66804C24.2057 9.93507 23.887 10.1552 23.5392 10.3199C23.4937 10.3518 23.4526 10.0783 23.5392 10.0008H23.5438ZM24.3506 9.99168C24.5102 10.0692 24.574 10.5296 24.5557 10.6526C24.5557 10.8988 24.4053 11.0902 24.3415 11.0629C24.2777 11.031 24.3506 10.7575 24.3187 10.6617C24.2822 10.525 24.1501 10.2743 24.1728 10.2014C24.1273 10.0464 24.2549 9.96433 24.3552 9.99168H24.3506ZM19.063 11.97C19.1369 11.8837 19.2229 11.8084 19.3183 11.7466C19.4094 11.701 19.4915 11.7831 19.4869 11.7785C19.5006 11.8697 19.4322 11.9472 19.455 12.0657C19.4733 12.1113 19.4869 12.166 19.5735 12.1477C19.7148 12.0338 19.847 12.0247 19.9838 12.0201C20.0977 12.0247 20.1023 12.2116 20.0294 12.2116C19.7695 12.2663 19.6556 12.3392 19.4687 12.4076C19.3775 12.4623 19.3046 12.3939 19.3046 12.3893C19.3046 12.3848 19.2545 12.3392 19.2864 12.2207C19.2955 12.1295 19.259 12.0748 19.177 12.0839C19.1223 12.1204 19.0676 12.1386 19.0402 12.0703C19.0265 12.0247 19.022 11.9973 19.063 11.97ZM25.2896 12.2161C25.3261 12.2617 25.3534 12.3073 25.2851 12.3893L25.1164 12.5352C25.0891 12.5808 25.0708 12.6628 25.162 12.6856C25.3261 12.7312 25.709 12.4805 25.709 12.4759C25.7728 12.4304 25.7546 12.3392 25.7454 12.3392C25.709 12.2982 25.6269 12.3255 25.5722 12.3164C25.5449 12.3164 25.4583 12.3073 25.4993 12.2252C25.5299 12.185 25.5545 12.1404 25.5722 12.093C25.595 12.0383 25.5722 12.0019 25.4811 11.97C25.3853 11.9517 25.3443 11.9609 25.2395 11.97C25.1848 11.9791 25.1665 12.0064 25.1529 12.0748C25.1574 12.1797 25.2212 12.1751 25.2896 12.2116V12.2161Z" fill="white"/>
<path fill-rule="evenodd" clip-rule="evenodd" d="M19.0953 9.62753C19.0726 9.67312 18.9905 9.67312 18.913 9.62753C18.8355 9.58195 18.7899 9.50902 18.8173 9.46799C18.8446 9.42697 18.9221 9.42697 18.9996 9.46799C19.0771 9.50902 19.1181 9.58651 19.0953 9.62753ZM15.0385 7.18429C14.9929 7.19797 14.9291 7.15694 14.9017 7.09313C14.8744 7.02931 14.8881 6.97461 14.9336 6.96094C14.9792 6.94726 15.0385 6.99285 15.0704 7.0521C15.1023 7.11136 15.0841 7.17518 15.0339 7.18885L15.0385 7.18429Z" fill="#165D31"/>
<path fill-rule="evenodd" clip-rule="evenodd" d="M23.0649 18.0737C23.4934 18.092 23.8945 18.0737 24.3184 18.0965C24.3959 18.1649 24.3412 18.3244 24.2911 18.3153L23.9355 18.3016C23.931 18.1649 23.5845 18.1877 23.5937 18.3062C23.4068 18.329 23.2381 18.3016 23.0467 18.2925C22.992 18.2242 23.0011 18.1011 23.0649 18.0737Z" fill="#165D31"/>
</g>
</g>
<rect x="1.16797" y="1.11865" width="34.429" height="22.9008" rx="3.81679" stroke="#A8B7D4" stroke-width="0.475596" stroke-linejoin="round"/>
<defs>
<clipPath id="clip0_1956_8795">
<rect x="1.16797" y="1.11865" width="34.429" height="22.9008" rx="3.81679" fill="white"/>
</clipPath>
</defs>
</svg>
