<svg width="207" height="168" viewBox="0 0 207 168" fill="none" xmlns="http://www.w3.org/2000/svg">
<circle opacity="0.1" cx="104.189" cy="106" r="62" fill="#01A0E2"/>
<circle cx="35.189" cy="59" r="4" fill="#B468FF"/>
<circle cx="110.689" cy="15.5" r="8.5" fill="#B468FF"/>
<circle cx="187.189" cy="95" r="8" fill="#01A0E2"/>
<path d="M152.189 5L154.271 10.9183L160.189 13L154.271 15.0817L152.189 21L150.107 15.0817L144.189 13L150.107 10.9183L152.189 5Z" fill="#FB46FF"/>
<path d="M28.8424 78.5306C28.8424 78.5306 27.196 85.177 19.3984 85.4631C14.2 85.6539 12.9771 80.2666 6.90446 83.9134C4.20007 85.5374 2.18896 90.4719 2.18896 90.4719" stroke="#FB46FF" stroke-width="3" stroke-linecap="round"/>
<path d="M31.689 117L34.5771 124.612L42.189 127.5L34.5771 130.388L31.689 138L28.8008 130.388L21.189 127.5L28.8008 124.612L31.689 117Z" fill="#01A0E2"/>
<circle cx="101.189" cy="3" r="2" fill="#FB46FF"/>
<path d="M38.5133 3.76226C39.4964 12.3082 59.3559 20.8261 59.7984 13.8343C60.4996 2.75464 33.7161 11.3933 70.2565 25.9123" stroke="#01A0E2" stroke-width="3" stroke-linecap="round"/>
<path d="M185.189 133.81C190.153 133.106 200.977 134.293 204.558 144.676" stroke="#B468FF" stroke-width="3" stroke-linecap="round"/>
<path d="M180.268 37.3673C180.268 37.3673 187.526 41.06 190.568 37.7505C193.343 34.7316 190.135 30.02 193.492 27.6657C196.224 25.75 202.011 27.0118 202.011 27.0118" stroke="#01A0E2" stroke-width="3" stroke-linecap="round"/>
<rect x="177.189" y="74" width="7" height="7" rx="2" fill="#01A0E2"/>
<path d="M96.5353 63.4998C101.436 61.4699 106.942 61.4699 111.843 63.4998L128.829 70.5359C133.73 72.5658 137.623 76.4592 139.653 81.3598L146.689 98.3463C148.719 103.247 148.719 108.753 146.689 113.654L139.653 130.64C137.623 135.541 133.73 139.434 128.829 141.464L111.843 148.5C106.942 150.53 101.436 150.53 96.5353 148.5L79.5488 141.464C74.6482 139.434 70.7547 135.541 68.7248 130.64L61.6888 113.654C59.6589 108.753 59.6589 103.247 61.6888 98.3463L68.7248 81.3598C70.7547 76.4592 74.6482 72.5658 79.5488 70.5359L96.5353 63.4998Z" fill="#F5F5FF" stroke="#01A0E2" stroke-width="8"/>
<path fill-rule="evenodd" clip-rule="evenodd" d="M116.07 93.88C116.629 93.3251 117.385 93.0128 118.173 93.0106C118.962 93.0085 119.719 93.3166 120.282 93.8684C120.845 94.4202 121.168 95.1714 121.181 95.9595C121.195 96.7476 120.897 97.5093 120.354 98.08L104.386 118.04C104.111 118.336 103.78 118.573 103.412 118.737C103.044 118.902 102.646 118.991 102.243 118.998C101.839 119.006 101.439 118.932 101.065 118.781C100.691 118.63 100.351 118.405 100.066 118.12L89.4856 107.536C89.1908 107.261 88.9544 106.93 88.7905 106.562C88.6265 106.194 88.5383 105.797 88.5312 105.394C88.5241 104.991 88.5982 104.591 88.7491 104.218C88.9 103.844 89.1246 103.505 89.4094 103.22C89.6943 102.935 90.0337 102.71 90.4072 102.56C90.7808 102.409 91.1809 102.335 91.5837 102.342C91.9865 102.349 92.3838 102.437 92.7517 102.601C93.1197 102.765 93.4509 103.001 93.7256 103.296L102.102 111.668L115.994 93.968C116.018 93.937 116.045 93.9076 116.074 93.88H116.07Z" fill="#01A0E2"/>
</svg>
