<svg width="187" height="133" viewBox="0 0 187 133" fill="none" xmlns="http://www.w3.org/2000/svg">
<circle cx="98.3262" cy="62.4043" r="62.4043" fill="#01A0E2" fill-opacity="0.02"/>
<circle cx="33.9725" cy="19.5018" r="5.8504" fill="#01A0E2"/>
<circle cx="31.0466" cy="109.208" r="7.80054" fill="#01A0E2"/>
<circle cx="170.481" cy="35.1023" r="7.80054" fill="#01A0E2"/>
<circle cx="159.756" cy="8.77573" r="4.87534" fill="#01A0E2"/>
<g filter="url(#filter0_dd_721_6393)">
<path fill-rule="evenodd" clip-rule="evenodd" d="M100.276 15.6016C87.1459 15.6016 75.5311 22.0898 68.4629 32.035C66.1548 31.4906 63.7478 31.2026 61.2734 31.2026C44.041 31.2026 30.0713 45.1723 30.0713 62.4048C30.0713 79.6373 44.041 93.6069 61.2734 93.6069H139.279C154.357 93.6069 166.581 81.3835 166.581 66.3051C166.581 51.2266 154.357 39.0032 139.279 39.0032C138.208 39.0032 137.151 39.0648 136.112 39.1848C130.136 25.3129 116.34 15.6016 100.276 15.6016Z" fill="#F9F5FF"/>
<circle cx="61.2744" cy="62.4053" r="31.2021" fill="url(#paint0_linear_721_6393)"/>
<circle cx="100.277" cy="54.6042" r="39.0027" fill="url(#paint1_linear_721_6393)"/>
<circle cx="139.279" cy="66.3048" r="27.3019" fill="url(#paint2_linear_721_6393)"/>
</g>
<g filter="url(#filter1_b_721_6393)">
<rect x="71.0244" y="58.5039" width="54.6038" height="54.6038" rx="27.3019" fill="#01A0E2"/>
<path d="M97.9645 91.2832C96.1926 91.2832 94.7549 92.7245 94.7549 94.4931C94.7549 96.265 96.1926 97.7027 97.9645 97.7027C99.7366 97.7027 101.174 96.265 101.174 94.4931C101.174 92.7245 99.7366 91.2832 97.9645 91.2832ZM97.9645 95.563C97.3763 95.563 96.8945 95.0884 96.8945 94.4931C96.8945 93.9046 97.3763 93.4231 97.9645 93.4231C98.5529 93.4231 99.0345 93.9046 99.0345 94.4931C99.0345 95.0884 98.5529 95.563 97.9645 95.563Z" fill="white"/>
<path d="M104.31 91.4268C104.784 91.0725 104.878 90.4004 104.524 89.9287C103.026 87.9361 100.645 86.6455 97.9638 86.6455C95.2825 86.6455 92.9017 87.9361 91.4041 89.9287C91.0497 90.4004 91.1432 91.0722 91.6179 91.4268C92.086 91.7812 92.7581 91.6841 93.1161 91.216C94.2194 89.7416 95.9811 88.7887 97.9638 88.7887C99.9465 88.7887 101.708 89.7416 102.812 91.216C103.17 91.6841 103.842 91.7812 104.31 91.4268Z" fill="white"/>
<path d="M106.419 87.7295C106.801 88.181 107.473 88.2376 107.927 87.8564C108.376 87.4752 108.435 86.7998 108.055 86.3484C105.634 83.4765 102.01 81.6543 97.9639 81.6543C93.9181 81.6543 90.2939 83.4765 87.8735 86.3484C87.4923 86.7998 87.5525 87.4752 88.0004 87.8564C88.4554 88.2376 89.1272 88.181 89.5086 87.7295C91.5381 85.3222 94.5738 83.7942 97.9641 83.7942C101.354 83.7942 104.39 85.3222 106.419 87.7295Z" fill="white"/>
<path d="M110.001 84.2386C110.392 84.6832 111.071 84.7234 111.512 84.3321C111.953 83.9444 111.993 83.2657 111.606 82.8241C108.269 79.043 103.394 76.6592 97.9641 76.6592C92.5344 76.6592 87.6596 79.043 84.3228 82.8244C83.9348 83.2657 83.9753 83.9446 84.4163 84.3324C84.8577 84.7237 85.5363 84.6835 85.9276 84.2389C88.8698 80.9054 93.1726 78.7991 97.9641 78.7991C102.756 78.7991 107.058 80.9051 110.001 84.2386Z" fill="white"/>
<path d="M109.818 97.705L112.63 94.8949C113.047 94.4787 113.047 93.8001 112.63 93.382C112.212 92.9642 111.533 92.9642 111.115 93.382L108.307 96.1921L105.498 93.3817C105.08 92.9639 104.401 92.9639 103.983 93.3817C103.565 93.7998 103.565 94.4785 103.983 94.8946L106.795 97.7048L103.983 100.513C103.565 100.931 103.565 101.61 103.983 102.028C104.401 102.446 105.08 102.446 105.498 102.028L108.306 99.2177L111.115 102.028C111.532 102.446 112.211 102.446 112.629 102.028C113.047 101.61 113.047 100.931 112.629 100.513L109.818 97.705Z" fill="white"/>
</g>
<defs>
<filter id="filter0_dd_721_6393" x="10.5699" y="15.6016" width="175.513" height="117.009" filterUnits="userSpaceOnUse" color-interpolation-filters="sRGB">
<feFlood flood-opacity="0" result="BackgroundImageFix"/>
<feColorMatrix in="SourceAlpha" type="matrix" values="0 0 0 0 0 0 0 0 0 0 0 0 0 0 0 0 0 0 127 0" result="hardAlpha"/>
<feMorphology radius="3.90027" operator="erode" in="SourceAlpha" result="effect1_dropShadow_721_6393"/>
<feOffset dy="7.80054"/>
<feGaussianBlur stdDeviation="3.90027"/>
<feColorMatrix type="matrix" values="0 0 0 0 0.0627451 0 0 0 0 0.0941176 0 0 0 0 0.156863 0 0 0 0.03 0"/>
<feBlend mode="normal" in2="BackgroundImageFix" result="effect1_dropShadow_721_6393"/>
<feColorMatrix in="SourceAlpha" type="matrix" values="0 0 0 0 0 0 0 0 0 0 0 0 0 0 0 0 0 0 127 0" result="hardAlpha"/>
<feMorphology radius="3.90027" operator="erode" in="SourceAlpha" result="effect2_dropShadow_721_6393"/>
<feOffset dy="19.5013"/>
<feGaussianBlur stdDeviation="11.7008"/>
<feColorMatrix type="matrix" values="0 0 0 0 0.0627451 0 0 0 0 0.0941176 0 0 0 0 0.156863 0 0 0 0.08 0"/>
<feBlend mode="normal" in2="effect1_dropShadow_721_6393" result="effect2_dropShadow_721_6393"/>
<feBlend mode="normal" in="SourceGraphic" in2="effect2_dropShadow_721_6393" result="shape"/>
</filter>
<filter id="filter1_b_721_6393" x="63.2239" y="50.7034" width="70.2046" height="70.2046" filterUnits="userSpaceOnUse" color-interpolation-filters="sRGB">
<feFlood flood-opacity="0" result="BackgroundImageFix"/>
<feGaussianBlur in="BackgroundImageFix" stdDeviation="3.90027"/>
<feComposite in2="SourceAlpha" operator="in" result="effect1_backgroundBlur_721_6393"/>
<feBlend mode="normal" in="SourceGraphic" in2="effect1_backgroundBlur_721_6393" result="shape"/>
</filter>
<linearGradient id="paint0_linear_721_6393" x1="37.3156" y1="41.7896" x2="92.4766" y2="93.6074" gradientUnits="userSpaceOnUse">
<stop stop-color="#01A0E2" stop-opacity="0.08"/>
<stop offset="0.997917" stop-color="white" stop-opacity="0"/>
</linearGradient>
<linearGradient id="paint1_linear_721_6393" x1="70.3286" y1="28.8346" x2="139.28" y2="93.6069" gradientUnits="userSpaceOnUse">
<stop stop-color="#01A0E2" stop-opacity="0.08"/>
<stop offset="0.997917" stop-color="white" stop-opacity="0"/>
</linearGradient>
<linearGradient id="paint2_linear_721_6393" x1="118.315" y1="48.2661" x2="166.581" y2="93.6066" gradientUnits="userSpaceOnUse">
<stop stop-color="#01A0E2" stop-opacity="0.08"/>
<stop offset="0.997917" stop-color="white" stop-opacity="0"/>
</linearGradient>
</defs>
</svg>
