<svg width="24" height="25" viewBox="0 0 24 25" fill="none" xmlns="http://www.w3.org/2000/svg">
<path d="M16.5 9.12981C16.09 9.12981 15.75 8.78981 15.75 8.37981V6.99981C15.75 5.94981 15.3 4.92981 14.52 4.21981C13.73 3.49981 12.71 3.16981 11.63 3.26981C9.83 3.43981 8.25 5.27981 8.25 7.19981V8.16981C8.25 8.57981 7.91 8.91981 7.5 8.91981C7.09 8.91981 6.75 8.57981 6.75 8.16981V7.18981C6.75 4.49981 8.92 2.01981 11.49 1.76981C12.99 1.62981 14.43 2.09981 15.53 3.10981C16.62 4.09981 17.25 5.51981 17.25 6.99981V8.37981C17.25 8.78981 16.91 9.12981 16.5 9.12981Z" fill="#101010"/>
<path d="M14.9998 23.25H8.99982C4.37982 23.25 3.51982 21.1 3.29982 19.01L2.54982 13.02C2.43982 11.94 2.39982 10.39 3.44982 9.23C4.34982 8.23 5.83982 7.75 7.99982 7.75H15.9998C18.1698 7.75 19.6598 8.24 20.5498 9.23C21.5898 10.39 21.5598 11.94 21.4498 13L20.6998 19.01C20.4798 21.1 19.6198 23.25 14.9998 23.25ZM7.99982 9.25C6.30982 9.25 5.14982 9.58 4.55982 10.24C4.06982 10.78 3.90982 11.61 4.03982 12.85L4.78982 18.84C4.95982 20.44 5.39982 21.76 8.99982 21.76H14.9998C18.5998 21.76 19.0398 20.45 19.2098 18.86L19.9598 12.85C20.0898 11.63 19.9298 10.8 19.4398 10.25C18.8498 9.58 17.6898 9.25 15.9998 9.25H7.99982Z" fill="#101010"/>
<path d="M15.4202 13.6499C14.8602 13.6499 14.4102 13.1999 14.4102 12.6499C14.4102 12.0999 14.8602 11.6499 15.4102 11.6499C15.9602 11.6499 16.4102 12.0999 16.4102 12.6499C16.4102 13.1999 15.9702 13.6499 15.4202 13.6499Z" fill="#101010"/>
<path d="M8.42016 13.6499C7.86016 13.6499 7.41016 13.1999 7.41016 12.6499C7.41016 12.0999 7.86016 11.6499 8.41016 11.6499C8.96016 11.6499 9.41016 12.0999 9.41016 12.6499C9.41016 13.1999 8.97016 13.6499 8.42016 13.6499Z" fill="#101010"/>
</svg>
