<svg width="20" height="20" viewBox="0 0 20 20" fill="none" xmlns="http://www.w3.org/2000/svg">
<path fill-rule="evenodd" clip-rule="evenodd" d="M6.11131 3.18233C6.78117 3.12887 7.4171 2.86546 7.92856 2.4296C9.12211 1.41246 10.8776 1.41246 12.0711 2.4296C12.5826 2.86546 13.2185 3.12887 13.8884 3.18233C15.4516 3.30707 16.6928 4.54837 16.8176 6.11156C16.871 6.78142 17.1345 7.41734 17.5703 7.92881C18.5875 9.12235 18.5875 10.8778 17.5703 12.0714C17.1345 12.5828 16.871 13.2187 16.8176 13.8886C16.6928 15.4518 15.4516 16.6931 13.8884 16.8178C13.2185 16.8713 12.5826 17.1347 12.0711 17.5706C10.8776 18.5877 9.12211 18.5877 7.92856 17.5706C7.4171 17.1347 6.78117 16.8713 6.11131 16.8178C4.54812 16.6931 3.30683 15.4518 3.18208 13.8886C3.12863 13.2187 2.86522 12.5828 2.42935 12.0714C1.41222 10.8778 1.41222 9.12235 2.42935 7.92881C2.86522 7.41734 3.12863 6.78142 3.18208 6.11156C3.30683 4.54837 4.54812 3.30707 6.11131 3.18233ZM13.7751 7.10869C14.0192 6.86461 14.0192 6.46888 13.7751 6.22481C13.531 5.98073 13.1353 5.98073 12.8912 6.22481L6.22456 12.8915C5.98048 13.1355 5.98048 13.5313 6.22456 13.7754C6.46864 14.0194 6.86437 14.0194 7.10845 13.7754L13.7751 7.10869ZM7.49984 6.45841C6.92454 6.45841 6.45817 6.92478 6.45817 7.50008C6.45817 8.07538 6.92454 8.54175 7.49984 8.54175C8.07513 8.54175 8.5415 8.07538 8.5415 7.50008C8.5415 6.92478 8.07513 6.45841 7.49984 6.45841ZM12.4998 11.4584C11.9245 11.4584 11.4582 11.9248 11.4582 12.5001C11.4582 13.0754 11.9245 13.5417 12.4998 13.5417C13.0751 13.5417 13.5415 13.0754 13.5415 12.5001C13.5415 11.9248 13.0751 11.4584 12.4998 11.4584Z" fill="#01A0E2"/>
</svg>
