<svg width="44" height="44" viewBox="0 0 44 44" fill="none" xmlns="http://www.w3.org/2000/svg">
<path fill-rule="evenodd" clip-rule="evenodd" d="M18.8777 16.3786C18.8777 18.2452 17.3389 19.7582 15.4389 19.7582C13.54 19.7582 12 18.2452 12 16.3786C12 14.513 13.54 13 15.4389 13C17.3389 13 18.8777 14.513 18.8777 16.3786ZM30.4933 14.8983C31.3244 14.8983 32 15.562 32 16.3786C32 17.1962 31.3244 17.8599 30.4933 17.8599H23.9178C23.0856 17.8599 22.4101 17.1962 22.4101 16.3786C22.4101 15.562 23.0856 14.8983 23.9178 14.8983H30.4933ZM13.5078 25.958H20.0833C20.9155 25.958 21.5911 26.6217 21.5911 27.4393C21.5911 28.2558 20.9155 28.9206 20.0833 28.9206H13.5078C12.6756 28.9206 12 28.2558 12 27.4393C12 26.6217 12.6756 25.958 13.5078 25.958ZM28.5611 30.7778C30.4611 30.7778 32 29.2648 32 27.3992C32 25.5325 30.4611 24.0196 28.5611 24.0196C26.6623 24.0196 25.1223 25.5325 25.1223 27.3992C25.1223 29.2648 26.6623 30.7778 28.5611 30.7778Z" fill="#101010"/>
</svg>
