<svg width="23" height="23" viewBox="0 0 23 23" fill="none" xmlns="http://www.w3.org/2000/svg">
<path d="M11.5686 2.87595C8.41017 2.87595 5.84337 5.44275 5.84337 8.60114V11.3588C5.84337 11.9408 5.59528 12.8282 5.29948 13.3244L4.20215 15.1469C3.52467 16.2729 3.99223 17.5229 5.23268 17.9427C9.34528 19.3168 13.7823 19.3168 17.8949 17.9427C19.0495 17.5611 19.5552 16.1966 18.9254 15.1469L17.8281 13.3244C17.5418 12.8282 17.2938 11.9408 17.2938 11.3588V8.60114C17.2938 5.45229 14.7174 2.87595 11.5686 2.87595Z" stroke="#0C0507" stroke-width="1.4313" stroke-miterlimit="10" stroke-linecap="round"/>
<path d="M13.3338 3.15268C13.038 3.0668 12.7326 3 12.4177 2.96184C11.5017 2.84733 10.6238 2.91413 9.80322 3.15268C10.0799 2.44657 10.767 1.95039 11.5685 1.95039C12.37 1.95039 13.057 2.44657 13.3338 3.15268Z" stroke="#0C0507" stroke-width="1.4313" stroke-miterlimit="10" stroke-linecap="round" stroke-linejoin="round"/>
<path d="M14.4312 18.2863C14.4312 19.8607 13.1431 21.1489 11.5687 21.1489C10.7862 21.1489 10.061 20.8244 9.54575 20.3092C9.03048 19.7939 8.70605 19.0687 8.70605 18.2863" stroke="#0C0507" stroke-width="1.4313" stroke-miterlimit="10"/>
</svg>
