<svg width="25" height="25" viewBox="0 0 25 25" fill="none" xmlns="http://www.w3.org/2000/svg">
<path d="M16.667 23.25H8.66699C5.01699 23.25 2.91699 21.15 2.91699 17.5V7.5C2.91699 3.85 5.01699 1.75 8.66699 1.75H16.667C20.317 1.75 22.417 3.85 22.417 7.5V17.5C22.417 21.15 20.317 23.25 16.667 23.25ZM8.66699 3.25C5.80699 3.25 4.41699 4.64 4.41699 7.5V17.5C4.41699 20.36 5.80699 21.75 8.66699 21.75H16.667C19.527 21.75 20.917 20.36 20.917 17.5V7.5C20.917 4.64 19.527 3.25 16.667 3.25H8.66699Z" fill="#101010"/>
<path d="M19.167 9.75H17.167C15.647 9.75 14.417 8.52 14.417 7V5C14.417 4.59 14.757 4.25 15.167 4.25C15.577 4.25 15.917 4.59 15.917 5V7C15.917 7.69 16.477 8.25 17.167 8.25H19.167C19.577 8.25 19.917 8.59 19.917 9C19.917 9.41 19.577 9.75 19.167 9.75Z" fill="#101010"/>
<path d="M12.667 14.25H8.66699C8.25699 14.25 7.91699 13.91 7.91699 13.5C7.91699 13.09 8.25699 12.75 8.66699 12.75H12.667C13.077 12.75 13.417 13.09 13.417 13.5C13.417 13.91 13.077 14.25 12.667 14.25Z" fill="#101010"/>
<path d="M16.667 18.25H8.66699C8.25699 18.25 7.91699 17.91 7.91699 17.5C7.91699 17.09 8.25699 16.75 8.66699 16.75H16.667C17.077 16.75 17.417 17.09 17.417 17.5C17.417 17.91 17.077 18.25 16.667 18.25Z" fill="#101010"/>
</svg>
